<svg xmlns="http://www.w3.org/2000/svg" viewBox="0 0 448 512"><path fill="#0A66C2" d="M416 0H32C14.3 0 0 14.3 0 32v448c0 17.7 14.3 32 32 32h384c17.7 0 32-14.3 32-32V32c0-17.7-14.3-32-32-32zM135.4 384H67V207.6h68.4V384zM105.6 165.4C105.6 135.2 128.8 112 159 112s53.4 23.2 53.4 53.4-23.2 53.4-53.4 53.4-53.4-23.2-53.4-53.4zm261.1 218.6h-68.4V307c0-24.8-14.4-38.4-33.2-38.4-17.6 0-28.4 10-33.2 19.6V192h-68.4c.9 18.8 0 196.4 0 218.6h68.4V335.5c.9-3.2 4.8-26.5 15.2-26.5 11.6 0 22.4 8.8 22.4 30.8V384h68.4V302.1c0-59.2-65.6-55.7-65.6 15.3V384h68.4V252.9c.4-71-71.6-72-71.6 0V384h68.4V251.2C384 133.3 487.6 139 475 55.8S370.4 192 370.4 192v34.8c-18.8-10-22.4-14.4-33.2-22.4 18.8 10 24.8 14.4 33.2 22.4V384h68.4z"/></svg>
