<svg xmlns="http://www.w3.org/2000/svg" viewBox="0 0 496 512"><path fill="#E60023" d="M496 256c0 137-111 248-248 248-26.9 0-53.1-4.3-78.2-11.9-7.2-2.2-14.2-4.3-20.9-6.5-6.1-2-11.9-4.4-17.7-7.4-24.3-12.3-41.1-34.3-46.9-60.4-1.6-7.3-2.4-14.8-2.4-22.5 0-52.7 42.8-95.5 95.5-95.5 26.2 0 50.5 10.4 68.6 27.5 4.4 4.1 7.9 9 10.5 14.5l27.9-12.8c-2.8-8.3-4.3-17.1-4.3-26.1 0-33.5 27.2-60.7 60.7-60.7 16.7 0 32.2 6.8 43.7 17.8 11.6 11 18.7 26.3 18.7 42.7 0 38-31.4 71.5-70.9 71.5-1.3 0-2.6-.1-3.9-.2l-13.7 64.3c-1.9 9.1-7.3 16.9-14.7 21.3l-48.6 28.7c-6.1 3.7-13.6 4.9-20.8 3.5 21.3-22.7 35.5-52.5 39.8-85.2l23.1-8.4c8.2-3 16.9-4.6 25.7-4.6 17.1 0 33.3 6.8 45.3 18.1 12 11.2 19.4 26.4 19.4 42.7z"/></svg>
