<svg xmlns="http://www.w3.org/2000/svg" viewBox="0 0 448 512"><path fill="#000000" d="M224 32c18.5 0 36.5 2.1 53.5 6.2-17.1-2.5-35.1-3.8-53.5-3.8-18.4 0-36.4 1.3-53.5 3.8C187.5 34.1 205.5 32 224 32zm0 89.6c-18.5 0-36.5 2.1-53.5 6.2-17.1-2.5-35.1-3.8-53.5-3.8-18.4 0-36.4 1.3-53.5 3.8C63.5 123.7 45.5 121.6 32 121.6v6.4c18.5 0 36.5 2.1 53.5 6.2 17.1-2.5 35.1-3.8 53.5-3.8 18.4 0 36.4 1.3 53.5 3.8C187.5 127.7 205.5 128 224 128v-6.4zm0 96c-18.5 0-36.5 2.1-53.5 6.2-17.1-2.5-35.1-3.8-53.5-3.8-18.4 0-36.4 1.3-53.5 3.8C63.5 219.7 45.5 217.6 32 217.6v6.4c18.5 0 36.5 2.1 53.5 6.2 17.1-2.5 35.1-3.8 53.5-3.8 18.4 0 36.4 1.3 53.5 3.8C187.5 223.7 205.5 224 224 224v-6.4zm0 96c-18.5 0-36.5 2.1-53.5 6.2-17.1-2.5-35.1-3.8-53.5-3.8-18.4 0-36.4 1.3-53.5 3.8C63.5 315.7 45.5 313.6 32 313.6v6.4c18.5 0 36.5 2.1 53.5 6.2 17.1-2.5 35.1-3.8 53.5-3.8 18.4 0 36.4 1.3 53.5 3.8C187.5 319.7 205.5 320 224 320v-6.4zm0 96c-18.5 0-36.5 2.1-53.5 6.2-17.1-2.5-35.1-3.8-53.5-3.8-18.4 0-36.4 1.3-53.5 3.8C63.5 411.7 45.5 409.6 32 409.6v6.4c18.5 0 36.5 2.1 53.5 6.2 17.1-2.5 35.1-3.8 53.5-3.8 18.4 0 36.4 1.3 53.5 3.8C187.5 415.7 205.5 416 224 416v-6.4zm0 96c-18.5 0-36.5 2.1-53.5 6.2-17.1-2.5-35.1-3.8-53.5-3.8-18.4 0-36.4 1.3-53.5 3.8C63.5 507.7 45.5 505.6 32 505.6v6.4c18.5 0 36.5 2.1 53.5 6.2 17.1-2.5 35.1-3.8 53.5-3.8 18.4 0 36.4 1.3 53.5 3.8C187.5 511.7 205.5 512 224 512v-6.4z"/></svg>
